<?xml version="1.0" encoding="UTF-8" standalone="no"?>
<!-- Created with Inkscape (http://www.inkscape.org/) -->

<svg
   xmlns:dc="http://purl.org/dc/elements/1.1/"
   xmlns:cc="http://creativecommons.org/ns#"
   xmlns:rdf="http://www.w3.org/1999/02/22-rdf-syntax-ns#"
   xmlns:svg="http://www.w3.org/2000/svg"
   xmlns="http://www.w3.org/2000/svg"
   xmlns:sodipodi="http://sodipodi.sourceforge.net/DTD/sodipodi-0.dtd"
   xmlns:inkscape="http://www.inkscape.org/namespaces/inkscape"
   id="svg2"
   version="1.1"
   inkscape:version="0.91 r13725"
   width="512"
   height="512"
   viewBox="0 0 512 512"
   sodipodi:docname="va0057-512 kопировать копия.svg">
  <metadata
     id="metadata8">
    <rdf:RDF>
      <cc:Work
         rdf:about="">
        <dc:format>image/svg+xml</dc:format>
        <dc:type
           rdf:resource="http://purl.org/dc/dcmitype/StillImage" />
        <dc:title></dc:title>
      </cc:Work>
    </rdf:RDF>
  </metadata>
  <defs
     id="defs6" />
  <sodipodi:namedview
     pagecolor="#ffffff"
     bordercolor="#666666"
     borderopacity="1"
     objecttolerance="10"
     gridtolerance="10"
     guidetolerance="10"
     inkscape:pageopacity="0"
     inkscape:pageshadow="2"
     inkscape:window-width="1366"
     inkscape:window-height="705"
     id="namedview4"
     showgrid="false"
     inkscape:zoom="0.95"
     inkscape:cx="256"
     inkscape:cy="256"
     inkscape:window-x="-8"
     inkscape:window-y="-8"
     inkscape:window-maximized="1"
     inkscape:current-layer="svg2" />
  <path
     style="fill:#000000"
     d="m 257.6691,16.760196 c -18.39722,0 -20.96167,0.225519 -32,2.80664 -19.27705,4.507601 -34.21054,10.889901 -50,21.371094 -52.90897,35.121454 -77.352269,98.99189 -61.50196,160.70313 1.55807,6.06615 3.88401,13.54902 5.16797,16.63086 1.28396,3.08184 32.92418,67.38009 70.3125,142.88281 l 67.97852,137.27734 21.52148,-43.40625 c 86.50804,-174.47402 117.29815,-237.33956 119.4336,-243.85547 5.24514,-16.00452 6.94482,-27.20003 6.98242,-46 0.0403,-20.11855 -1.51034,-30.61708 -6.91016,-46.75586 -10.87419,-32.500386 -30.94622,-58.864574 -58.98437,-77.47656 -15.78946,-10.481193 -30.72295,-16.863493 -50,-21.371094 -11.03833,-2.581121 -13.60278,-2.806642 -32,-2.80664 z m -0.0156,73.912109 c 7.02396,-0.0024 14.05296,0.596249 18.51563,1.798828 25.98201,7.001515 46.64481,27.706337 53.59179,53.699217 2.3625,8.83954 2.42001,27.22002 0.11329,36 -0.93924,3.575 -3.80604,10.775 -6.3711,16 -3.94438,8.03468 -6.06417,10.89339 -13.74805,18.53907 -10.3307,10.2794 -20.4096,16.232 -32.79882,19.36914 -19.15466,4.85024 -35.76828,2.97781 -53.89453,-6.07227 -6.67367,-3.33203 -10.25259,-6.04926 -17.47657,-13.26367 -7.66377,-7.65361 -9.81593,-10.5586 -13.75,-18.57227 -6.3595,-12.95423 -8.06651,-20.0651 -8.04101,-33.5 0.0245,-12.89405 1.92307,-21.77141 6.84375,-32.00195 9.39385,-19.53061 27.4137,-34.451112 48.53125,-40.183595 4.44151,-1.205675 11.46042,-1.810057 18.48437,-1.8125 z"
     id="path3338"
     inkscape:connector-curvature="0" />
</svg>
