<?xml version="1.0" encoding="utf-8"?>
<!-- Generator: Adobe Illustrator 17.0.0, SVG Export Plug-In . SVG Version: 6.00 Build 0)  -->
<!DOCTYPE svg PUBLIC "-//W3C//DTD SVG 1.1//EN" "http://www.w3.org/Graphics/SVG/1.1/DTD/svg11.dtd">
<svg version="1.1"
	 id="svg2" xmlns:dc="http://purl.org/dc/elements/1.1/" xmlns:cc="http://creativecommons.org/ns#" xmlns:rdf="http://www.w3.org/1999/02/22-rdf-syntax-ns#" xmlns:svg="http://www.w3.org/2000/svg" xmlns:inkscape="http://www.inkscape.org/namespaces/inkscape" xmlns:sodipodi="http://sodipodi.sourceforge.net/DTD/sodipodi-0.dtd" sodipodi:docname="va0057-512 kРѕРїРёСЂРѕРІР°С‚СЊ РєРѕРїРёСЏ.svg" inkscape:version="0.91 r13725"
	 xmlns="http://www.w3.org/2000/svg" xmlns:xlink="http://www.w3.org/1999/xlink" x="0px" y="0px" width="512px" height="512px"
	 viewBox="0 0 512 512" enable-background="new 0 0 512 512" xml:space="preserve">
<sodipodi:namedview  id="namedview4" inkscape:window-maximized="1" bordercolor="#666666" showgrid="false" pagecolor="#ffffff" inkscape:cy="256" inkscape:zoom="0.95" borderopacity="1" objecttolerance="10" gridtolerance="10" inkscape:cx="256" guidetolerance="10" inkscape:current-layer="svg2" inkscape:window-y="-8" inkscape:window-x="-8" inkscape:window-height="705" inkscape:window-width="1366" inkscape:pageshadow="2" inkscape:pageopacity="0">
	</sodipodi:namedview>
<path id="path3338" inkscape:connector-curvature="0" fill="#D7D7D9" d="M257.669,16.76c-18.397,0-20.962,0.226-32,2.807
	c-19.277,4.508-34.211,10.89-50,21.371c-52.909,35.121-77.352,98.992-61.502,160.703c1.558,6.066,3.884,13.549,5.168,16.631
	s32.924,67.38,70.313,142.883l67.979,137.277l21.521-43.406c86.508-174.474,117.298-237.34,119.434-243.855
	c5.245-16.005,6.945-27.2,6.982-46c0.04-20.119-1.51-30.617-6.91-46.756c-10.874-32.5-30.946-58.865-58.984-77.477
	c-15.789-10.481-30.723-16.863-50-21.371C278.631,16.986,276.066,16.76,257.669,16.76z M257.654,90.672
	c7.024-0.002,14.053,0.596,18.516,1.799c25.982,7.002,46.645,27.706,53.592,53.699c2.362,8.84,2.42,27.22,0.113,36
	c-0.939,3.575-3.806,10.775-6.371,16c-3.944,8.035-6.064,10.893-13.748,18.539c-10.331,10.279-20.41,16.232-32.799,19.369
	c-19.155,4.85-35.768,2.978-53.895-6.072c-6.674-3.332-10.253-6.049-17.477-13.264c-7.664-7.654-9.816-10.559-13.75-18.572
	c-6.359-12.954-8.067-20.065-8.041-33.5c0.025-12.894,1.923-21.771,6.844-32.002c9.394-19.531,27.414-34.451,48.531-40.184
	C243.611,91.279,250.63,90.675,257.654,90.672z"/>
<linearGradient id="SVGID_1_" gradientUnits="userSpaceOnUse" x1="-240.5" y1="171.5" x2="-34.5" y2="171.5">
	<stop  offset="0" style="stop-color:#FFFFFF"/>
	<stop  offset="0.1034" style="stop-color:#000000"/>
	<stop  offset="0.197" style="stop-color:#FFFFFF"/>
	<stop  offset="0.335" style="stop-color:#696667"/>
	<stop  offset="0.4778" style="stop-color:#FFFFFF"/>
	<stop  offset="0.5961" style="stop-color:#000000"/>
	<stop  offset="0.734" style="stop-color:#676465"/>
	<stop  offset="0.8325" style="stop-color:#FFFFFF"/>
	<stop  offset="1" style="stop-color:#323232"/>
</linearGradient>
<rect x="-240.5" y="68.5" fill="url(#SVGID_1_)" width="206" height="206"/>
</svg>
