<?xml version="1.0" encoding="UTF-8" standalone="no"?>
<!-- Created with Inkscape (http://www.inkscape.org/) -->

<svg
   xmlns:dc="http://purl.org/dc/elements/1.1/"
   xmlns:cc="http://creativecommons.org/ns#"
   xmlns:rdf="http://www.w3.org/1999/02/22-rdf-syntax-ns#"
   xmlns:svg="http://www.w3.org/2000/svg"
   xmlns="http://www.w3.org/2000/svg"
   xmlns:sodipodi="http://sodipodi.sourceforge.net/DTD/sodipodi-0.dtd"
   xmlns:inkscape="http://www.inkscape.org/namespaces/inkscape"
   id="svg2"
   version="1.1"
   inkscape:version="0.91 r13725"
   width="600"
   height="600"
   viewBox="0 0 600 600"
   sodipodi:docname="pen.svg">
  <metadata
     id="metadata8">
    <rdf:RDF>
      <cc:Work
         rdf:about="">
        <dc:format>image/svg+xml</dc:format>
        <dc:type
           rdf:resource="http://purl.org/dc/dcmitype/StillImage" />
        <dc:title></dc:title>
      </cc:Work>
    </rdf:RDF>
  </metadata>
  <defs
     id="defs6" />
  <sodipodi:namedview
     pagecolor="#ffffff"
     bordercolor="#666666"
     borderopacity="1"
     objecttolerance="10"
     gridtolerance="10"
     guidetolerance="10"
     inkscape:pageopacity="0"
     inkscape:pageshadow="2"
     inkscape:window-width="1366"
     inkscape:window-height="705"
     id="namedview4"
     showgrid="false"
     inkscape:zoom="0.4609375"
     inkscape:cx="256"
     inkscape:cy="256"
     inkscape:window-x="-8"
     inkscape:window-y="-8"
     inkscape:window-maximized="1"
     inkscape:current-layer="svg2" />
  <path
     style="fill:#000000"
     d="m 85.470831,559.43256 c -10.43771,-2.26741 -18.87688,-7.03498 -27.33658,-15.44335 -12.7702,-12.69273 -18.33335,-28.11122 -16.12037,-44.67828 0.8954,-6.70325 29.79369,-114.08154 38.85151,-144.36178 5.41018,-18.08621 5.60554,-18.33265 50.337059,-63.5 C 296.073,124.97222 349.20876,71.937574 355.08624,67.991364 401.28768,36.971159 463.33727,45.00309 508.41883,87.839304 c 48.26085,45.857136 58.61659,114.006406 24.33636,160.153166 -2.91473,3.9237 -48.67203,50.8566 -101.68289,104.29534 -53.01086,53.43874 -109.64827,110.58705 -125.86091,126.99625 -28.83881,29.18844 -36.80353,36.06445 -46.49105,40.13609 -4.19955,1.76505 -13.13774,4.17634 -103.85725,28.01793 -54.19753,14.2434 -56.894029,14.70949 -69.392259,11.99448 z m 49.999509,-39.53671 31.75,-8.27385 0,-6.17646 c 0,-18.89921 -11.62755,-40.61513 -29.36656,-54.84578 -11.11906,-8.91996 -29.00117,-15.65061 -41.580849,-15.65061 -2.77892,0 -5.05259,0.21099 -5.05259,0.46887 0,0.25788 -4.05,15.1964 -9,33.19672 -4.95,18.00031 -9,34.67877 -9,37.06325 0,9.41082 6.5361,18.4575 15.8522,21.94117 5.87197,2.19576 12.688839,1.06104 46.397799,-7.72331 z m 74.15361,-19.52633 c 40.73303,-10.67915 37.67,-9.5089 42.3219,-16.16935 9.91309,-14.19326 13.51453,-25.84359 13.52464,-43.75102 0.0155,-27.38633 -10.58507,-51.68164 -31.71955,-72.6979 -20.27717,-20.16374 -44.87727,-30.92631 -71.0306,-31.07598 -13.83744,-0.0792 -21.90771,1.54607 -32.81906,6.60937 -8.63734,4.00807 -13.11222,7.6294 -15.703,12.70775 -1.48717,2.91509 -17.977939,59.96542 -17.977939,62.19523 0,0.26214 2.73506,0.76249 6.077909,1.11188 9.02392,0.94319 17.44528,3.35614 26.54092,7.60469 30.50607,14.24932 50.03623,41.18898 53.86081,74.29496 0.36535,3.1625 0.92602,5.75 1.24593,5.75 0.31991,0 11.87503,-2.96083 25.67804,-6.57963 z M 359.35871,379.5872 c 33.42032,-33.74908 63.0364,-64.01158 65.81352,-67.25 6.0367,-7.03946 12.21845,-19.25745 14.61606,-28.88805 2.2813,-9.16343 2.33224,-27.35087 0.10485,-37.43472 -0.90323,-4.08909 -1.99842,-7.7909 -2.43376,-8.22624 -0.43534,-0.43534 -34.68625,33.10544 -76.11315,74.53506 l -75.32162,75.32658 3.53681,9.44299 c 4.38914,11.71862 7.65892,27.41383 7.65892,36.76341 0,3.90111 0.30919,7.09292 0.68708,7.09292 0.3779,0 28.03098,-27.61288 61.45129,-61.36195 z m 68.91772,-163.84641 c -9.55681,-17.38638 -25.57522,-33.01754 -44.40662,-43.33308 l -6.85053,-3.75261 -76.42904,76.39702 c -63.44325,63.41667 -76.15065,76.56694 -74.79049,77.39703 19.95005,12.17535 36.73523,27.43617 46.47769,42.2568 l 5.42767,8.2568 76.46516,-76.46516 76.46516,-76.46516 -2.359,-4.29164 z m -144.20204,22.85432 c 54.75821,-54.76181 74.9178,-75.51953 73.77088,-75.95964 -0.868,-0.33309 -5.48232,-1.12516 -10.25403,-1.76015 -15.05917,-2.00401 -30.40221,0.4993 -44.3709,7.23936 l -8.5,4.10135 -66,66.09329 -66,66.09329 8.72999,0.68857 c 10.10625,0.79711 19.37101,2.77585 29.27001,6.2514 3.85,1.35173 7.22612,2.4912 7.50248,2.53214 0.27637,0.0409 34.40957,-33.83489 75.85157,-75.27961 z m 224.2099,-11.01424 c 9.41941,-13.25202 13.58871,-28.758 12.64568,-47.03039 -1.27208,-24.64843 -12.30479,-47.89496 -32.02337,-67.475 -10.43382,-10.36051 -18.37774,-16.011706 -31.27303,-22.247206 -12.981,-6.27695 -23.13066,-8.91142 -36.965,-9.59472 -16.9172,-0.83558 -32.04218,2.84415 -44.8435,10.90988 -4.69637,2.95905 -37.60473,34.323276 -37.60473,35.840236 0,0.36528 4.6125,0.94761 10.25,1.29407 16.19409,0.99524 29.15097,4.75759 47.25,13.72022 32.01119,15.85192 58.5542,45.74555 70.37862,79.26278 4.04046,11.45298 7.12138,26.7391 7.12138,35.33299 l 0,6.83041 15.09102,-14.98749 c 8.30006,-8.24313 17.28788,-18.07823 19.97293,-21.85578 z"
     id="path3338"
     inkscape:connector-curvature="0" />
</svg>
