<?xml version="1.0" encoding="UTF-8" standalone="no"?>
<!-- Created with Inkscape (http://www.inkscape.org/) -->

<svg
   xmlns:dc="http://purl.org/dc/elements/1.1/"
   xmlns:cc="http://creativecommons.org/ns#"
   xmlns:rdf="http://www.w3.org/1999/02/22-rdf-syntax-ns#"
   xmlns:svg="http://www.w3.org/2000/svg"
   xmlns="http://www.w3.org/2000/svg"
   xmlns:sodipodi="http://sodipodi.sourceforge.net/DTD/sodipodi-0.dtd"
   xmlns:inkscape="http://www.inkscape.org/namespaces/inkscape"
   id="svg2"
   version="1.1"
   inkscape:version="0.91 r13725"
   width="512"
   height="600"
   viewBox="0 0 512 600"
   sodipodi:docname="tele.svg">
  <metadata
     id="metadata8">
    <rdf:RDF>
      <cc:Work
         rdf:about="">
        <dc:format>image/svg+xml</dc:format>
        <dc:type
           rdf:resource="http://purl.org/dc/dcmitype/StillImage" />
        <dc:title></dc:title>
      </cc:Work>
    </rdf:RDF>
  </metadata>
  <defs
     id="defs6" />
  <sodipodi:namedview
     pagecolor="#ffffff"
     bordercolor="#666666"
     borderopacity="1"
     objecttolerance="10"
     gridtolerance="10"
     guidetolerance="10"
     inkscape:pageopacity="0"
     inkscape:pageshadow="2"
     inkscape:window-width="1366"
     inkscape:window-height="705"
     id="namedview4"
     showgrid="false"
     inkscape:zoom="0.86"
     inkscape:cx="256"
     inkscape:cy="308.3472"
     inkscape:window-x="-8"
     inkscape:window-y="-8"
     inkscape:window-maximized="1"
     inkscape:current-layer="svg2" />
  <path
     style="fill:#000000"
     d="m 267.89844,54.363281 c -100.10092,-0.02372 -103.33448,0.03428 -109.57227,1.960938 -16.71282,5.162062 -31.1656,19.734471 -36.88281,37.187501 l -2.40039,7.32812 0.043,208.5 c 0.033,158.01568 0.33215,209.77006 1.23828,213.74805 4.25898,18.69723 21.62498,36.63949 40.33008,41.66992 4.52914,1.21804 21.5135,1.46033 106.58789,1.51563 70.26057,0.0457 102.82091,-0.27186 106.5,-1.03906 7.38437,-1.53993 16.6586,-6.1142 23.20312,-11.44532 5.84715,-4.76306 13.56828,-14.74526 16.10742,-20.82226 4.67616,-11.19162 4.48161,-1.55004 4.47461,-222.57422 C 417.52037,81.67121 417.93083,96.6097 411.31055,83.93164 404.70102,71.27419 388.50384,58.414826 375.34961,55.380859 372.64819,54.757787 332.57479,54.37861 267.89844,54.363281 Z M 210.26367,75.45313 c 14.66146,0.003 33.99026,0.0513 59.61524,0.11718 l 104.16406,0.26953 4.62695,2.2793 c 11.46763,5.64994 16.92817,15.04871 17.66797,30.41211 l 0.47266,9.80859 -128.24805,0 -128.24609,0 0.3789,-10.26367 c 0.32358,-8.74126 0.7936,-11.10958 3.17383,-15.97461 3.36034,-6.86828 9.10391,-12.03251 16.42969,-14.77343 3.99634,-1.49523 5.98046,-1.88491 49.96484,-1.875 z m -69.7207,63.88671 128,0 128,0 0,149.5 0,149.5 -128,0 -128,0 0,-149.5 0,-149.5 z m 0,320 128.06445,0 128.06446,0 -0.31446,31.25 c -0.29617,29.44699 -0.43911,31.5154 -2.45312,35.8711 -3.0678,6.63474 -8.68259,12.39651 -15.20118,15.59765 l -5.66015,2.78125 -103,0.22852 c -96.97314,0.21577 -103.30413,0.12366 -108.17969,-1.57227 -6.96671,-2.42333 -11.685,-5.78236 -15.4414,-10.99218 -5.48692,-7.60992 -5.87891,-10.49883 -5.87891,-43.32422 l 0,-29.83985 z m 127.07031,15.00977 c -13.18375,0.0282 -28.08745,15.04558 -28.06445,28.27734 0.0191,11.00739 9.09952,23.25408 20.30859,27.38672 16.33017,6.02073 36.7819,-8.79281 36.95117,-26.76367 0.13899,-14.75533 -14.18357,-28.93249 -29.19531,-28.90039 z m 0.85742,20.99023 c 5.31862,0 7.07227,1.99089 7.07227,8.03516 0,3.8145 -0.42776,5.12274 -1.93555,5.92969 -1.06384,0.56935 -3.73839,1.03515 -5.94336,1.03515 -4.73326,0 -7.12109,-2.59062 -7.12109,-7.72265 0,-4.54057 2.98093,-7.27735 7.92773,-7.27735 z"
     id="path3338"
     inkscape:connector-curvature="0" />
</svg>
